<?xml version="1.0" standalone="no"?>
<!DOCTYPE svg PUBLIC "-//W3C//DTD SVG 20010904//EN"
 "http://www.w3.org/TR/2001/REC-SVG-20010904/DTD/svg10.dtd">
<svg version="1.0" xmlns="http://www.w3.org/2000/svg"
 width="500.000000pt" height="500.000000pt" viewBox="0 0 500.000000 500.000000"
 preserveAspectRatio="xMidYMid meet">

<g transform="translate(0.000000,500.000000) scale(0.100000,-0.100000)"
fill="#000000" stroke="none">
<path d="M0 2500 l0 -2500 2500 0 2500 0 0 1266 c0 793 -4 1263 -9 1259 -6 -3
-60 6 -122 20 -121 27 -149 30 -149 16 0 -9 45 -21 189 -52 42 -9 51 -14 51
-32 0 -40 -21 -97 -35 -97 -12 0 -63 11 -212 45 -16 4 -23 1 -23 -10 0 -8 2
-15 5 -15 21 0 242 -54 249 -61 10 -9 -10 -115 -22 -123 -8 -4 -419 88 -427
96 -3 2 16 100 42 216 38 172 50 212 64 212 9 0 96 -18 194 -40 98 -22 184
-40 191 -40 12 0 14 191 14 1170 l0 1170 -2500 0 -2500 0 0 -2500z m3955 1223
c41 -61 118 -117 187 -134 51 -13 64 -29 25 -29 -39 0 -143 -58 -182 -101 -41
-46 -85 -132 -85 -167 0 -13 -4 -20 -10 -17 -5 3 -10 14 -10 23 0 30 -47 119
-85 161 -39 43 -143 101 -182 101 -40 0 -25 14 35 32 109 32 195 121 229 238
l16 55 14 -55 c7 -30 29 -78 48 -107z m-1265 122 c438 -72 821 -358 1015 -760
29 -60 56 -120 60 -132 10 -34 -17 -20 -38 20 -10 18 -36 53 -58 77 -39 45
-40 45 -34 15 16 -85 21 -136 15 -140 -3 -2 -15 39 -25 92 -20 108 -30 121
-127 180 -86 52 -87 52 -77 -4 5 -26 12 -87 17 -135 8 -85 7 -88 -13 -88 -11
0 -60 16 -109 35 -49 19 -104 39 -123 44 -33 9 -33 9 -33 -25 0 -19 -5 -34
-11 -34 -7 0 -10 14 -7 36 4 31 1 37 -21 46 -26 10 -171 41 -248 53 l-43 7 -1
-44 c-1 -23 -5 -56 -9 -73 -6 -23 -8 -13 -9 41 -1 58 -4 73 -18 79 -10 3 -86
9 -170 12 l-153 6 0 -55 0 -54 113 -17 c61 -10 136 -23 166 -28 l54 -11 -31
-19 -30 -20 -35 24 c-33 23 -46 24 -249 31 -117 3 -240 11 -272 16 -51 7 -62
6 -73 -8 -11 -16 -12 -16 -13 0 0 18 -26 24 -155 33 -44 3 -99 8 -122 11 l-43
5 -1 -43 c-2 -33 -3 -36 -6 -13 -7 57 -6 57 -110 18 -54 -20 -127 -46 -163
-58 -36 -12 -83 -38 -105 -57 -68 -58 -115 -91 -122 -85 -9 9 -4 112 8 181 6
32 7 61 4 65 -10 9 -71 -64 -94 -115 -12 -24 -26 -44 -31 -44 -6 0 -10 2 -10
4 0 6 27 78 45 120 l16 38 -98 -7 c-131 -9 -305 -41 -364 -66 -81 -35 -101
-69 -75 -130 6 -13 -1 -18 -26 -23 -42 -9 -68 20 -68 74 0 107 169 174 507
201 l151 12 72 110 c84 128 234 285 350 366 299 210 668 294 1030 236z m1589
-648 c18 -15 42 -27 54 -27 17 -1 12 -6 -18 -20 -41 -21 -85 -65 -85 -87 0 -7
-4 -13 -10 -13 -5 0 -10 6 -10 14 0 24 -42 68 -84 87 -23 10 -33 19 -23 19 32
0 74 32 97 73 l23 40 12 -30 c7 -16 27 -41 44 -56z m-2083 -272 c43 -28 51
-67 55 -250 l4 -170 -82 -3 -82 -3 -3 47 c-4 68 -26 69 -30 2 l-3 -53 -77 -3
c-93 -3 -85 -21 -92 197 -8 218 4 240 139 252 93 9 140 4 171 -16z m469 9 c19
-9 40 -30 49 -49 30 -63 15 -168 -29 -205 -12 -10 -50 -17 -124 -20 l-106 -5
-5 -75 -5 -75 -82 -3 -83 -3 0 219 c0 120 3 222 7 225 3 4 83 7 176 7 133 0
176 -3 202 -16z m473 0 l73 -6 -3 -61 -3 -62 -137 4 c-87 2 -138 0 -138 -6 0
-11 70 -23 137 -23 88 0 133 -47 133 -140 0 -68 -21 -115 -61 -135 -28 -15
-54 -16 -210 -10 -118 5 -179 11 -181 19 -3 6 -2 35 0 65 l4 53 132 -3 c157
-5 192 13 45 22 -144 10 -169 30 -169 142 0 81 18 123 63 142 32 14 121 13
315 -1z m-1294 -41 c3 -21 6 -54 6 -74 l0 -37 -62 -6 c-35 -3 -96 -9 -136 -12
l-73 -7 3 -66 3 -66 70 0 c39 0 102 2 140 5 l70 5 6 -70 c4 -41 2 -73 -3 -76
-6 -4 -88 -12 -184 -19 -193 -15 -211 -12 -242 40 -20 32 -46 266 -35 312 7
27 30 56 57 70 19 10 232 34 327 37 46 1 46 1 53 -36z m1551 22 c44 -3 104 -8
133 -11 l52 -6 0 -58 c0 -81 -5 -90 -50 -90 -44 0 -45 -1 -56 -166 -3 -56 -10
-107 -14 -113 -5 -9 -29 -10 -85 -5 l-77 7 8 111 c13 188 14 180 -26 186 l-35
5 1 61 c1 83 7 97 41 90 16 -2 64 -7 108 -11z m504 -63 c19 -9 44 -29 55 -45
20 -27 20 -29 3 -169 -18 -147 -28 -175 -73 -205 -23 -15 -37 -16 -127 -6
-106 12 -139 27 -167 76 -12 22 -12 41 2 159 25 208 38 222 183 213 54 -4 104
-13 124 -23z m-2702 -16 c26 -22 28 -30 28 -92 0 -65 -1 -69 -27 -82 -34 -16
-36 -32 -5 -32 13 0 31 -6 40 -12 17 -13 37 -95 37 -153 0 -37 -4 -39 -101
-50 -64 -8 -59 -14 -75 99 l-7 48 -50 -5 c-27 -4 -52 -8 -54 -11 -3 -2 0 -35
6 -73 6 -37 7 -71 2 -76 -9 -9 -149 -32 -156 -26 -6 6 -65 432 -61 437 7 6
306 50 353 51 31 1 49 -5 70 -23z m3006 -20 c75 -12 140 -26 143 -29 3 -3 -4
-65 -16 -137 -12 -72 -20 -134 -17 -137 15 -14 25 16 42 126 10 66 22 126 26
132 6 10 23 10 80 0 40 -6 76 -14 78 -17 7 -6 -60 -410 -70 -426 -6 -9 -49 -5
-165 15 -87 15 -159 29 -161 31 -2 2 6 61 18 130 21 118 21 153 0 130 -5 -5
-16 -61 -26 -124 -10 -63 -21 -119 -25 -124 -11 -12 -150 13 -156 29 -4 10 37
271 62 398 7 34 9 34 187 3z m-3438 -191 c22 -119 29 -179 23 -200 -13 -50
-46 -73 -126 -90 -128 -26 -184 -17 -213 36 -11 22 -69 310 -69 346 0 18 8 23
58 33 31 6 65 12 74 14 25 6 28 -2 54 -141 25 -131 31 -150 44 -136 5 4 -3 66
-16 137 -14 71 -23 134 -20 141 5 14 93 34 136 32 23 -2 25 -8 55 -172z m1055
80 c0 -8 -4 -15 -10 -15 -5 0 -10 7 -10 15 0 8 5 15 10 15 6 0 10 -7 10 -15z
m-1516 -10 c44 -21 53 -40 87 -187 42 -186 30 -214 -103 -249 -93 -24 -151
-26 -182 -5 -34 22 -40 35 -70 164 -48 207 -36 234 118 272 91 23 111 23 150
5z m1381 5 c-11 -5 -29 -9 -40 -9 -17 -1 -17 1 -5 9 8 5 26 9 40 9 23 0 23 -1
5 -9z m-398 -42 c-3 -8 -6 -5 -6 6 -1 11 2 17 5 13 3 -3 4 -12 1 -19z m65
-130 c-12 -12 -24 -19 -28 -15 -4 3 4 15 17 26 31 25 39 17 11 -11z m1208 -48
c-20 -13 -73 -13 -65 0 3 6 23 10 43 10 28 0 33 -3 22 -10z m-168 -50 c31 -38
16 -99 -29 -119 -40 -18 -127 -14 -154 8 -29 23 -33 91 -7 117 37 38 158 34
190 -6z m-1035 -38 l15 -42 41 30 c22 16 48 30 56 30 8 0 -8 -16 -37 -36 -29
-20 -52 -42 -51 -48 0 -6 13 -37 27 -68 l27 -57 72 47 c39 26 79 52 89 58 17
10 17 12 0 53 -9 24 -14 46 -11 49 7 7 9 4 28 -43 16 -40 18 -42 50 -30 9 4
17 3 17 -3 0 -6 -9 -14 -20 -17 -11 -3 -20 -13 -20 -22 0 -13 123 -279 135
-291 2 -2 39 9 82 26 43 16 86 32 95 35 15 5 12 19 -23 123 -21 65 -39 124
-39 133 0 31 18 -6 45 -94 15 -49 33 -104 40 -121 l13 -32 79 19 c43 10 90 18
106 19 30 0 31 3 18 81 -14 84 -22 153 -16 147 3 -3 13 -50 21 -104 9 -55 19
-102 23 -106 4 -4 57 -5 119 -1 l112 6 0 79 c0 45 4 78 10 78 6 0 10 -33 10
-78 l0 -79 117 -6 c64 -4 118 -5 120 -3 2 2 10 38 17 80 7 42 17 80 21 84 4 4
5 -11 1 -33 -3 -22 -9 -62 -12 -90 l-6 -50 88 -17 c49 -9 96 -19 105 -23 14
-5 23 10 48 80 17 47 31 93 31 101 0 7 5 14 10 14 14 0 13 -7 -20 -105 -17
-49 -27 -92 -23 -96 5 -4 26 -12 48 -19 22 -7 57 -21 77 -31 21 -11 41 -19 47
-19 5 0 21 20 35 45 32 59 116 241 116 254 0 5 -9 13 -20 16 -11 3 -20 11 -20
16 0 6 7 6 19 -1 27 -14 26 -15 45 35 10 25 22 45 27 45 5 0 0 -22 -10 -49
l-20 -48 42 -23 c23 -13 64 -38 90 -57 l48 -34 30 67 c34 74 36 67 -40 116
-19 12 -29 24 -23 26 7 2 31 -10 54 -27 l43 -32 10 30 c22 65 31 47 11 -24 -4
-15 9 -36 53 -83 l59 -63 22 66 c12 36 19 72 16 80 -3 10 1 15 12 15 10 0 18
-8 19 -17 1 -10 10 -47 21 -83 l19 -65 8 66 c4 36 11 72 15 80 37 58 7 -140
-45 -298 -68 -212 -172 -381 -335 -543 -201 -201 -454 -338 -725 -391 -102
-20 -417 -18 -520 3 -480 100 -874 439 -1033 889 -34 97 -72 262 -72 314 0 58
18 40 26 -26 8 -68 13 -67 40 9 10 28 21 52 25 52 4 0 18 -32 31 -71 13 -39
27 -70 31 -70 4 1 31 29 60 64 51 60 53 63 41 92 -7 17 -13 44 -13 60 0 17 3
23 5 15 3 -8 12 -34 21 -58z m1273 9 c0 -52 -3 -62 -26 -80 -18 -14 -41 -21
-70 -21 -61 0 -90 14 -102 49 -11 31 -10 31 22 31 23 0 38 -7 48 -21 10 -16
20 -20 36 -15 19 6 22 14 22 62 l0 54 35 0 35 0 0 -59z m220 39 c0 -18 -7 -20
-60 -20 -33 0 -60 -4 -60 -10 0 -5 12 -10 28 -10 42 0 72 -11 72 -26 0 -10
-14 -14 -50 -14 -27 0 -50 -4 -50 -10 0 -6 27 -10 60 -10 53 0 60 -2 60 -20 0
-19 -7 -20 -95 -20 l-95 0 0 80 0 80 95 0 c88 0 95 -1 95 -20z m-706 -6 c19
-18 21 -55 4 -72 -8 -8 -8 -15 2 -26 17 -22 5 -46 -24 -46 -16 0 -27 7 -31 20
-12 39 -85 39 -85 0 0 -16 -6 -20 -35 -20 l-35 0 0 80 0 80 94 0 c73 0 98 -4
110 -16z m326 -9 c0 -14 -4 -25 -10 -25 -11 0 -14 33 -3 43 11 11 13 8 13 -18z
m594 4 c41 -32 34 -48 -16 -37 -69 15 -90 14 -102 -4 -21 -34 22 -70 62 -52
17 7 73 6 81 -2 10 -9 -25 -35 -59 -44 -50 -13 -119 2 -142 31 -26 31 -23 75
7 104 33 34 128 36 169 4z m-1176 -5 c28 -20 28 -58 0 -78 -12 -9 -44 -19 -70
-22 -42 -6 -48 -10 -48 -30 0 -21 -5 -24 -34 -24 -32 0 -34 2 -40 46 -3 26 -6
62 -6 80 0 29 3 33 33 37 80 10 143 7 165 -9z m1355 9 c56 -5 67 -9 67 -24 0
-15 -8 -19 -35 -19 l-34 0 -3 -57 c-3 -57 -3 -58 -33 -58 -30 0 -30 0 -33 63
-3 61 -3 62 -32 62 -18 0 -30 5 -30 13 0 29 15 32 133 20z m-84 -59 c2 -2 2
-6 0 -9 -8 -7 -49 7 -49 17 0 8 38 2 49 -8z m1203 -94 c33 0 6 -24 -60 -53
-93 -41 -347 -85 -384 -65 -19 9 -24 33 -9 42 5 3 59 13 121 21 61 9 144 27
183 40 40 13 85 22 101 19 16 -2 37 -4 48 -4z"/>
<path d="M2303 3833 c-23 -2 -46 -9 -51 -16 -8 -9 11 -11 81 -9 101 3 117 6
117 22 0 10 -57 11 -147 3z"/>
<path d="M2470 3832 c0 -14 41 -20 142 -24 62 -3 75 -1 65 9 -16 16 -207 30
-207 15z"/>
<path d="M2137 3803 c-32 -9 -56 -17 -53 -20 7 -7 126 19 132 28 7 12 -9 10
-79 -8z"/>
<path d="M2705 3812 c9 -10 114 -33 139 -31 15 1 -65 25 -111 34 -25 4 -35 3
-28 -3z"/>
<path d="M2300 3793 c-79 -6 -86 -10 -109 -62 -29 -68 -28 -71 22 -66 23 3 86
7 140 11 l97 6 0 59 0 59 -52 -2 c-29 -1 -73 -3 -98 -5z"/>
<path d="M2470 3741 l0 -61 33 -1 c17 0 82 -4 142 -9 61 -4 111 -7 113 -5 6 5
-39 104 -52 114 -6 5 -62 12 -123 16 l-113 7 0 -61z"/>
<path d="M2048 3773 c7 -3 16 -2 19 1 4 3 -2 6 -13 5 -11 0 -14 -3 -6 -6z"/>
<path d="M2082 3761 c-70 -15 -88 -23 -120 -54 -21 -20 -46 -51 -56 -68 l-19
-32 24 6 c13 4 62 14 109 23 47 8 94 17 106 20 14 2 27 19 39 51 10 27 22 54
28 61 12 16 -5 15 -111 -7z"/>
<path d="M2756 3723 c12 -32 31 -61 41 -64 10 -4 59 -15 108 -24 50 -10 101
-20 114 -23 24 -5 24 -5 -6 39 -51 73 -72 87 -166 109 -123 28 -119 30 -91
-37z"/>
<path d="M1880 3703 c-93 -38 -153 -77 -194 -127 -20 -25 -36 -47 -36 -50 0
-3 19 3 43 13 23 10 72 28 108 40 51 17 69 28 78 48 7 15 26 44 42 65 17 21
29 38 27 38 -1 0 -32 -12 -68 -27z"/>
<path d="M3004 3689 c15 -17 33 -44 41 -59 11 -20 30 -33 72 -48 32 -11 82
-29 111 -41 48 -19 52 -19 43 -3 -24 46 -119 119 -193 150 -96 40 -106 40 -74
1z"/>
<path d="M2228 3651 c-65 -7 -65 -7 -78 -51 l-9 -33 37 7 c20 3 90 9 155 13
l117 6 0 34 0 33 -82 -1 c-46 -1 -109 -5 -140 -8z"/>
<path d="M2470 3627 l0 -34 123 -6 c67 -4 137 -9 156 -13 l34 -7 -7 33 c-3 19
-8 35 -10 38 -8 8 -143 21 -218 22 l-78 0 0 -33z"/>
<path d="M2030 3620 c-152 -33 -154 -33 -172 -71 -9 -19 -15 -35 -14 -36 0 -1
36 7 79 17 43 10 102 22 131 25 67 9 74 14 82 53 8 38 11 37 -106 12z"/>
<path d="M2790 3609 c12 -40 20 -45 84 -54 29 -3 85 -14 126 -25 41 -10 77
-16 79 -14 3 2 -2 19 -11 37 -15 32 -20 34 -124 56 -183 37 -164 37 -154 0z"/>
<path d="M1790 3559 c-106 -36 -168 -71 -184 -103 -8 -17 -14 -32 -12 -33 2
-2 36 10 76 27 40 16 90 35 111 40 31 9 42 18 54 47 8 20 14 37 13 38 -2 1
-28 -6 -58 -16z"/>
<path d="M3080 3573 c0 -4 5 -21 12 -39 9 -25 20 -34 52 -44 23 -6 74 -25 115
-41 41 -16 75 -28 77 -26 10 10 -41 69 -73 85 -53 27 -183 73 -183 65z"/>
<path d="M3287 3543 c15 -22 50 -52 78 -68 46 -25 48 -26 30 -5 -11 12 -46 43
-78 67 l-58 45 28 -39z"/>
<path d="M1579 3510 l-64 -60 47 25 c43 24 111 95 90 95 -5 0 -38 -27 -73 -60z"/>
<path d="M2203 3561 c-28 -4 -55 -10 -59 -13 -4 -4 -9 -31 -12 -59 -5 -51 -4
-52 19 -45 13 3 86 9 162 13 l137 6 0 54 0 53 -97 -1 c-54 -1 -121 -5 -150 -8z"/>
<path d="M2470 3517 l0 -54 143 -6 c78 -4 153 -10 166 -13 23 -7 23 -6 16 47
-4 30 -9 55 -10 57 -8 9 -141 22 -222 22 l-93 0 0 -53z"/>
<path d="M2000 3531 c-170 -37 -167 -35 -180 -92 -7 -27 -11 -52 -8 -54 4 -4
288 52 295 58 2 2 6 27 10 56 7 60 11 59 -117 32z"/>
<path d="M2807 3503 c5 -50 23 -73 56 -73 11 0 71 -12 134 -26 63 -14 116 -24
118 -22 2 2 -1 25 -7 52 -8 40 -15 50 -42 61 -29 13 -133 36 -222 50 l-42 6 5
-48z"/>
<path d="M1750 3464 c-25 -9 -75 -29 -111 -46 -63 -28 -66 -32 -82 -81 -9 -28
-15 -52 -13 -54 1 -2 28 8 59 22 31 13 86 34 121 45 55 18 64 25 69 49 3 16 9
40 13 55 7 30 5 30 -56 10z"/>
<path d="M3125 3430 c8 -29 15 -53 17 -55 2 -2 50 -21 108 -43 58 -21 113 -42
122 -47 16 -6 16 -4 2 42 -9 26 -25 56 -35 65 -19 16 -148 70 -201 83 l-27 7
14 -52z"/>
<path d="M1534 3439 c-63 -40 -92 -67 -111 -104 l-16 -29 24 17 c13 9 47 30
76 47 45 26 93 83 81 96 -3 2 -27 -10 -54 -27z"/>
<path d="M3345 3438 c11 -21 35 -44 63 -61 26 -14 62 -36 80 -48 l33 -21 -22
36 c-19 33 -112 106 -154 122 -14 6 -14 3 0 -28z"/>
<path d="M2271 3439 c-74 -5 -138 -12 -142 -16 -4 -5 -10 -66 -14 -137 l-8
-129 69 6 c38 4 115 9 172 13 l102 7 0 133 c0 133 0 134 -22 133 -13 -1 -84
-6 -157 -10z"/>
<path d="M2470 3317 l0 -135 108 -6 c59 -4 135 -9 170 -12 l62 -6 0 113 c0
166 6 156 -108 163 -54 4 -127 9 -164 12 l-68 5 0 -134z"/>
<path d="M2025 3409 c-27 -5 -89 -19 -137 -30 -99 -24 -92 -12 -104 -170 l-7
-87 32 -7 c25 -5 214 22 279 41 8 2 12 31 12 96 0 51 3 110 6 131 7 42 8 42
-81 26z"/>
<path d="M2823 3330 c4 -51 7 -112 7 -135 l0 -42 61 -7 c34 -4 104 -18 157
-32 53 -13 97 -22 99 -21 4 4 -16 260 -21 264 -4 5 -211 50 -265 58 l-44 7 6
-92z"/>
<path d="M1459 3320 c-66 -43 -79 -56 -98 -101 -11 -29 -20 -54 -18 -56 2 -2
35 17 72 42 38 25 77 47 86 50 9 3 22 24 28 48 7 23 15 48 17 55 10 22 -10 13
-87 -38z"/>
<path d="M3380 3362 c0 -5 7 -29 16 -54 11 -34 23 -49 45 -58 16 -7 55 -30 85
-52 31 -21 58 -38 59 -36 2 2 -9 28 -23 58 -22 45 -40 64 -97 102 -71 48 -85
55 -85 40z"/>
<path d="M1680 3316 c-127 -49 -147 -61 -154 -96 -3 -16 -8 -43 -11 -58 l-6
-29 83 -6 c46 -4 102 -7 125 -7 40 0 42 2 47 33 10 68 16 197 9 197 -5 -1 -46
-16 -93 -34z"/>
<path d="M3146 3336 c3 -7 8 -66 12 -131 l7 -117 90 -32 c50 -18 104 -40 122
-49 18 -9 34 -17 38 -17 9 0 6 105 -6 185 -14 89 -11 87 -151 139 -107 40
-120 42 -112 22z"/>
<path d="M1445 3204 c-33 -20 -70 -45 -84 -55 l-24 -19 80 0 80 0 6 52 c4 28
5 53 4 55 -2 1 -30 -14 -62 -33z"/>
<path d="M1323 3208 c-11 -13 -28 -36 -38 -51 -18 -29 -18 -29 4 -25 17 2 28
16 41 51 10 26 17 47 16 47 -1 0 -12 -10 -23 -22z"/>
<path d="M3584 3215 c4 -11 13 -33 18 -50 11 -30 78 -109 86 -100 2 2 -8 26
-23 52 -32 54 -93 129 -81 98z"/>
<path d="M2205 3143 c-83 -10 -95 -14 -95 -33 0 -11 1 -20 3 -20 1 0 72 -9
157 -20 85 -11 161 -20 168 -20 8 0 12 17 12 50 l0 50 -107 -1 c-60 -1 -121
-4 -138 -6z"/>
<path d="M2002 3118 c-30 -5 -52 -11 -50 -12 2 -2 36 -6 76 -10 68 -6 72 -5
72 14 0 23 -12 24 -98 8z"/>
<path d="M1302 3023 c-6 -27 -14 -77 -18 -112 -8 -72 -15 -72 81 -5 33 23 75
49 93 58 29 15 32 21 32 61 l0 45 -89 0 -89 0 -10 -47z"/>
<path d="M1506 3054 c-8 -20 -8 -64 0 -64 3 0 36 14 74 30 38 17 73 30 79 30
5 0 13 5 16 10 4 6 -25 10 -78 10 -68 0 -86 -3 -91 -16z"/>
<path d="M2054 2796 c-8 -21 -1 -49 14 -54 8 -2 12 7 12 27 0 33 -17 51 -26
27z"/>
<path d="M2450 2805 c0 -13 10 -15 50 -13 67 4 69 22 3 26 -43 2 -53 0 -53
-13z"/>
<path d="M3766 2683 c-4 -32 -10 -73 -13 -90 -4 -25 -2 -33 10 -33 11 0 16 17
22 68 3 37 9 77 12 90 4 15 1 22 -10 22 -11 0 -17 -16 -21 -57z"/>
<path d="M1006 2711 c-22 -3 -41 -12 -44 -20 -4 -11 5 -12 44 -6 27 4 52 9 57
12 8 5 -1 24 -11 22 -4 -1 -25 -5 -46 -8z"/>
<path d="M180 2553 c0 -18 38 -164 44 -170 17 -17 17 14 1 92 -12 56 -23 85
-32 85 -7 0 -13 -3 -13 -7z"/>
<path d="M2262 2408 c-28 -28 -3 -72 39 -66 30 4 47 33 33 56 -14 21 -55 27
-72 10z"/>
<path d="M1171 2302 c-7 -13 -16 -47 -21 -77 -8 -46 -6 -63 12 -105 11 -28 23
-48 26 -45 3 2 13 29 23 59 18 53 18 54 -5 122 -21 64 -24 67 -35 46z"/>
<path d="M1318 2272 c-70 -74 -71 -78 -36 -149 l31 -62 37 47 c20 26 44 53 53
61 22 17 22 18 -11 90 l-28 62 -46 -49z"/>
<path d="M3537 2263 c-15 -33 -27 -63 -27 -66 0 -4 24 -36 52 -72 l53 -66 29
60 c34 69 33 76 -38 157 l-42 47 -27 -60z"/>
<path d="M3719 2253 c-19 -52 -23 -76 -16 -89 6 -10 15 -38 22 -63 l12 -46 19
40 c22 48 23 144 2 194 l-14 35 -25 -71z"/>
<path d="M1544 2254 c-32 -19 -68 -44 -78 -54 -20 -19 -20 -20 4 -62 31 -58
148 -238 154 -238 3 0 30 18 61 39 31 22 62 42 67 43 6 2 -13 52 -43 113 -30
61 -62 129 -71 153 -9 23 -20 42 -25 42 -5 0 -36 -16 -69 -36z"/>
<path d="M3286 2242 c-11 -26 -42 -93 -69 -149 -28 -57 -49 -104 -46 -106 49
-38 133 -87 138 -80 77 110 171 263 171 277 0 9 -150 106 -164 106 -6 0 -20
-21 -30 -48z"/>
<path d="M1381 2123 c-23 -27 -44 -58 -47 -70 -7 -25 64 -135 141 -221 l48
-53 15 23 c8 13 28 37 43 53 l29 31 -73 111 c-41 61 -79 125 -87 142 -7 17
-16 31 -20 31 -5 0 -27 -21 -49 -47z"/>
<path d="M3470 2127 c-12 -23 -51 -86 -86 -139 -63 -94 -74 -118 -55 -118 6 0
25 -21 43 -46 l33 -46 43 48 c24 27 68 86 99 131 62 92 63 94 4 158 -53 59
-55 59 -81 12z"/>
<path d="M1231 2142 c-7 -13 -15 -44 -18 -71 -5 -41 -1 -57 23 -100 l28 -52
12 43 c7 24 15 53 19 64 4 14 -3 41 -23 80 -28 55 -30 57 -41 36z"/>
<path d="M3653 2103 l-30 -58 19 -55 c11 -30 21 -56 23 -58 1 -2 15 18 30 43
23 40 26 53 20 93 -3 26 -12 57 -19 70 -12 22 -13 21 -43 -35z"/>
<path d="M2302 2110 c-40 -5 -76 -10 -78 -13 -5 -5 55 -280 65 -294 3 -5 41
-7 84 -5 l77 4 0 159 0 159 -37 -1 c-21 -1 -71 -5 -111 -9z"/>
<path d="M2470 1962 l0 -159 83 -5 c45 -3 83 -4 85 -3 2 1 18 70 36 151 l33
149 -21 6 c-11 3 -65 9 -118 13 l-98 7 0 -159z"/>
<path d="M2155 2093 c-97 -20 -155 -37 -155 -44 0 -17 115 -289 123 -289 9 0
140 29 143 32 2 2 -11 72 -29 156 -33 158 -32 156 -82 145z"/>
<path d="M2710 2043 c-6 -32 -22 -102 -34 -156 l-23 -97 21 -5 c88 -18 129
-25 133 -22 6 7 123 277 123 286 0 8 -59 24 -177 46 l-31 6 -12 -58z"/>
<path d="M1881 2020 c-41 -16 -78 -33 -83 -38 -15 -15 162 -272 187 -272 10 0
103 37 113 45 2 2 -17 47 -41 101 -24 55 -52 120 -62 147 -10 26 -23 47 -29
47 -6 -1 -44 -14 -85 -30z"/>
<path d="M2941 2028 c-29 -76 -53 -132 -84 -199 l-35 -76 63 -25 63 -24 28 35
c47 58 163 235 159 241 -4 6 -120 53 -162 65 -18 5 -25 1 -32 -17z"/>
<path d="M1302 1993 c-29 -73 -26 -96 19 -154 44 -57 149 -169 159 -169 3 0
11 21 18 46 l13 47 -59 71 c-32 39 -76 97 -97 129 -21 31 -39 57 -40 57 -2 0
-7 -12 -13 -27z"/>
<path d="M3558 1944 c-30 -44 -75 -101 -100 -129 l-44 -50 16 -54 17 -53 72
79 c111 123 125 146 118 204 -11 89 -18 89 -79 3z"/>
<path d="M1211 1960 c0 -23 58 -128 59 -107 0 16 -25 71 -49 107 -10 13 -11
13 -10 0z"/>
<path d="M1701 1930 c-34 -22 -61 -45 -59 -49 7 -20 145 -174 185 -207 l42
-35 43 27 c24 15 44 28 46 29 2 2 -24 40 -57 85 -33 44 -75 106 -93 136 -18
30 -35 54 -39 54 -3 0 -34 -18 -68 -40z"/>
<path d="M3116 1910 c-20 -33 -63 -95 -95 -137 l-57 -78 43 -28 c24 -15 48
-27 53 -27 10 0 208 208 221 231 7 14 -4 25 -54 58 -35 23 -66 41 -69 41 -3 0
-22 -27 -42 -60z"/>
<path d="M3686 1926 c-25 -43 -36 -91 -17 -70 11 10 53 114 47 114 -2 0 -16
-20 -30 -44z"/>
<path d="M1585 1838 c-55 -65 -55 -70 15 -135 35 -32 92 -79 127 -105 l64 -47
30 33 c16 19 29 36 29 39 0 3 -25 29 -55 57 -30 29 -80 83 -112 121 -31 38
-60 69 -64 69 -4 0 -19 -15 -34 -32z"/>
<path d="M3240 1799 c-36 -41 -88 -96 -117 -124 l-51 -50 32 -37 32 -37 64 48
c73 53 190 159 190 171 0 4 -19 29 -43 55 l-42 47 -65 -73z"/>
<path d="M1286 1835 c11 -52 30 -88 77 -150 49 -65 124 -141 131 -134 3 2 0
26 -6 52 -7 35 -18 54 -41 71 -27 21 -93 95 -152 171 -15 19 -15 19 -9 -10z"/>
<path d="M3593 1798 c-23 -29 -67 -78 -98 -108 -34 -33 -55 -63 -55 -77 0 -12
-5 -34 -10 -49 l-10 -26 37 32 c91 79 190 223 181 265 -2 11 -16 -1 -45 -37z"/>
<path d="M2353 1783 c-64 -5 -64 -6 -24 -124 45 -133 49 -139 88 -139 l33 0 0
135 c0 134 0 135 -22 133 -13 -1 -47 -3 -75 -5z"/>
<path d="M2470 1650 l0 -130 35 0 c30 0 37 5 54 38 18 36 71 194 71 213 0 5
-36 9 -80 9 l-80 0 0 -130z"/>
<path d="M2200 1759 c-74 -15 -74 -14 -44 -66 31 -55 85 -137 112 -171 15 -20
24 -22 59 -16 l41 6 -23 57 c-13 31 -33 89 -45 129 -24 78 -21 76 -100 61z"/>
<path d="M2643 1749 c-7 -24 -66 -195 -77 -221 -6 -13 1 -17 34 -23 48 -8 42
-14 133 128 31 50 56 95 54 101 -3 11 -82 33 -120 35 -11 1 -21 -8 -24 -20z"/>
<path d="M1511 1713 c-16 -55 -14 -62 21 -91 66 -56 225 -159 232 -151 2 2 8
18 13 35 10 30 9 31 -71 92 -44 34 -104 82 -133 108 l-52 45 -10 -38z"/>
<path d="M3359 1714 c-18 -19 -67 -61 -108 -92 -40 -31 -82 -64 -92 -72 -17
-13 -18 -19 -8 -47 6 -18 13 -33 16 -33 18 0 187 112 229 152 30 28 31 32 22
71 -5 23 -12 45 -17 50 -4 4 -23 -9 -42 -29z"/>
<path d="M2790 1693 c-13 -25 -47 -79 -76 -121 l-53 -77 25 -13 c23 -12 29
-10 74 28 52 44 170 168 170 179 0 4 -26 16 -58 28 l-58 21 -24 -45z"/>
<path d="M2043 1713 c-24 -8 -43 -20 -43 -26 0 -6 46 -57 103 -114 102 -102
104 -103 135 -92 l31 11 -38 51 c-21 29 -56 82 -77 120 -22 39 -45 67 -54 66
-8 0 -34 -7 -57 -16z"/>
<path d="M1923 1652 l-41 -27 36 -31 c66 -55 215 -154 232 -154 9 0 21 5 27
11 9 9 -15 39 -96 120 -60 60 -110 109 -112 109 -2 0 -23 -13 -46 -28z"/>
<path d="M2839 1569 c-105 -108 -106 -109 -83 -124 21 -14 28 -11 122 53 99
67 162 116 162 126 0 8 -78 56 -87 55 -5 -1 -56 -51 -114 -110z"/>
<path d="M1503 1598 c14 -55 26 -75 59 -99 40 -30 131 -82 181 -103 l36 -15
-6 32 c-3 18 -9 33 -13 35 -20 8 -172 107 -214 139 l-49 37 6 -26z"/>
<path d="M3400 1606 c-12 -16 -207 -149 -229 -158 -5 -2 -12 -18 -16 -36 l-7
-33 74 37 c128 64 175 99 188 138 6 20 10 43 8 52 -3 16 -4 16 -18 0z"/>
<path d="M1835 1578 c-26 -30 -26 -32 -8 -46 10 -7 78 -43 151 -80 128 -64
134 -66 148 -48 13 18 10 22 -36 48 -27 16 -88 58 -135 93 -47 36 -87 65 -89
65 -2 0 -16 -14 -31 -32z"/>
<path d="M3005 1569 c-27 -23 -87 -66 -133 -96 -74 -50 -82 -57 -68 -71 13
-13 29 -8 149 51 74 37 140 73 147 82 10 11 8 20 -10 45 -12 16 -24 30 -28 30
-4 -1 -29 -19 -57 -41z"/>
<path d="M1791 1498 c-9 -25 -8 -35 1 -44 19 -18 183 -83 251 -99 52 -12 57
-12 57 4 0 11 -34 33 -107 68 -60 28 -127 63 -150 77 l-41 26 -11 -32z"/>
<path d="M2985 1454 c-77 -39 -146 -73 -153 -75 -23 -7 -3 -37 21 -32 50 11
127 38 205 70 67 29 82 39 81 57 -2 56 -7 55 -154 -20z"/>
<path d="M2353 1490 c-127 -23 -233 -93 -233 -154 0 -64 97 -136 215 -157 80
-15 257 -6 319 16 71 24 122 61 141 101 15 33 15 37 -2 72 -22 45 -86 86 -166
106 -75 20 -209 27 -274 16z"/>
<path d="M1616 1422 c47 -45 89 -69 183 -109 l33 -14 -22 31 c-12 17 -30 34
-39 37 -32 11 -117 52 -161 78 l-45 26 51 -49z"/>
<path d="M3244 1411 c-95 -48 -155 -93 -142 -106 10 -10 171 79 214 119 27 25
47 45 44 45 -3 -1 -55 -27 -116 -58z"/>
<path d="M1790 1413 c0 -39 29 -53 174 -89 112 -27 139 -29 134 -13 -2 7 -44
24 -93 38 -50 15 -116 39 -149 54 -69 32 -66 32 -66 10z"/>
<path d="M3073 1404 c-64 -29 -201 -74 -225 -74 -10 0 -18 -7 -18 -15 0 -19
22 -19 103 0 137 32 194 54 201 78 12 45 12 45 -61 11z"/>
<path d="M1820 1340 c0 -5 13 -19 29 -33 30 -25 92 -40 210 -53 52 -6 63 -4
59 7 -3 9 -38 21 -89 31 -46 9 -112 25 -146 36 -35 11 -63 16 -63 12z"/>
<path d="M3050 1330 c-30 -10 -96 -26 -147 -36 -58 -11 -94 -23 -98 -32 -4
-12 6 -13 62 -8 124 12 198 34 222 67 12 16 20 29 19 28 -2 -1 -28 -9 -58 -19z"/>
<path d="M1820 1285 c0 -6 56 -35 67 -35 10 0 -27 25 -49 33 -10 4 -18 4 -18
2z"/>
<path d="M3054 1264 c-18 -14 -18 -14 6 -3 31 14 36 19 24 19 -6 0 -19 -7 -30
-16z"/>
<path d="M1940 1238 c29 -19 51 -24 134 -27 87 -3 98 -1 88 11 -8 10 -35 15
-84 16 -67 1 -100 5 -153 18 -12 3 -5 -4 15 -18z"/>
<path d="M2970 1249 c-19 -4 -69 -9 -110 -10 -43 -1 -83 -8 -95 -16 -34 -23
149 -17 203 7 23 10 42 21 42 25 0 3 -1 5 -2 4 -2 -1 -19 -5 -38 -10z"/>
<path d="M2120 1191 l-75 -6 47 -12 c51 -14 100 -16 137 -6 l23 6 -23 13 c-13
7 -26 13 -29 12 -3 -1 -39 -4 -80 -7z"/>
<path d="M2700 1186 l-25 -14 38 -7 c43 -8 119 0 145 15 12 7 0 9 -45 10 -34
0 -67 2 -75 5 -7 2 -24 -2 -38 -9z"/>
<path d="M2245 1155 l-40 -12 30 -6 c17 -4 102 -10 190 -13 129 -5 158 -4 148
6 -8 9 -49 14 -120 16 -59 1 -121 6 -138 11 -19 6 -44 5 -70 -2z"/>
<path d="M2622 1160 c-13 -3 -24 -9 -25 -15 -3 -14 40 -17 87 -8 l38 8 -38 11
c-22 5 -49 7 -62 4z"/>
<path d="M2010 2394 c0 -11 9 -14 37 -12 52 4 56 28 4 28 -30 0 -41 -4 -41
-16z"/>
<path d="M1763 2385 c-8 -23 2 -28 42 -21 21 4 35 13 35 21 0 21 -69 20 -77 0z"/>
</g>
</svg>
